<svg width="266" height="266" viewBox="0 0 266 266" fill="none" xmlns="http://www.w3.org/2000/svg">
<path d="M134.5 222.5C122.5 222.5 111.25 220.25 100.75 215.75C90.4167 211.25 81.25 205.083 73.25 197.25C65.25 189.25 59 180 54.5 169.5C50 159 47.75 147.75 47.75 135.75C47.75 123.75 50 112.583 54.5 102.25C59 91.75 65.1667 82.5 73 74.5C81 66.5 90.25 60.25 100.75 55.75C111.25 51.25 122.5 49 134.5 49C146.5 49 157.75 51.25 168.25 55.75C178.75 60.25 187.917 66.5 195.75 74.5C203.75 82.3333 210 91.5 214.5 102C219 112.5 221.25 123.75 221.25 135.75C221.25 147.75 219 159 214.5 169.5C210 180 203.75 189.25 195.75 197.25C187.917 205.083 178.75 211.25 168.25 215.75C157.75 220.25 146.5 222.5 134.5 222.5ZM134.25 183C151.75 183 165.167 174.083 174.5 156.25L165.75 151.5C162.083 158 157.583 162.917 152.25 166.25C147.083 169.417 141.083 171 134.25 171C127.25 171 121.083 169.417 115.75 166.25C110.583 162.917 106.25 158 102.75 151.5L94.25 156.25C103.583 174.083 116.917 183 134.25 183ZM101.5 129C104.833 129 107.5 127.917 109.5 125.75C111.667 123.583 112.75 120.917 112.75 117.75C112.75 114.583 111.667 111.917 109.5 109.75C107.5 107.583 104.833 106.5 101.5 106.5C98.3333 106.5 95.6667 107.583 93.5 109.75C91.3333 111.917 90.25 114.583 90.25 117.75C90.25 120.917 91.3333 123.583 93.5 125.75C95.6667 127.917 98.3333 129 101.5 129ZM167.5 129C170.667 129 173.333 128 175.5 126C177.667 123.833 178.75 121.083 178.75 117.75C178.75 114.583 177.667 111.917 175.5 109.75C173.333 107.583 170.667 106.5 167.5 106.5C164.333 106.5 161.667 107.583 159.5 109.75C157.333 111.917 156.25 114.583 156.25 117.75C156.25 120.917 157.333 123.583 159.5 125.75C161.667 127.917 164.333 129 167.5 129Z" fill="black"/>
</svg>
